<?xml version="1.0" standalone="no"?>
<!DOCTYPE svg PUBLIC "-//W3C//DTD SVG 20010904//EN"
 "http://www.w3.org/TR/2001/REC-SVG-20010904/DTD/svg10.dtd">
<svg version="1.0" xmlns="http://www.w3.org/2000/svg"
 width="541.000000pt" height="541.000000pt" viewBox="0 0 541.000000 541.000000"
 preserveAspectRatio="xMidYMid meet">
<metadata>
Created by potrace 1.11, written by Peter Selinger 2001-2013
</metadata>
<g transform="translate(0.000000,541.000000) scale(0.100000,-0.100000)"
fill="#000000" stroke="none">
<path d="M2559 5406 c-3 -3 -55 -8 -115 -11 -138 -6 -280 -14 -319 -19 -16 -2
-55 -7 -85 -11 -30 -4 -66 -9 -80 -10 -71 -9 -121 -17 -213 -36 -150 -30 -163
-33 -232 -53 -132 -38 -186 -56 -255 -85 -41 -17 -80 -31 -86 -31 -7 0 -15 -7
-18 -16 -3 -8 -10 -13 -15 -10 -16 11 -261 -134 -261 -154 0 -6 -4 -9 -9 -6
-18 11 -200 -166 -271 -263 -105 -144 -178 -309 -216 -486 -11 -51 -27 -133
-31 -165 -9 -64 -15 -342 -7 -358 4 -10 6 -20 6 -24 -4 -18 32 -161 62 -253
35 -104 89 -223 152 -335 39 -70 150 -241 181 -277 10 -13 34 -44 53 -70 19
-27 37 -50 40 -53 3 -3 15 -17 26 -32 28 -37 109 -130 166 -192 26 -28 48 -54
48 -58 0 -5 7 -8 16 -8 8 0 13 -4 10 -8 -6 -11 30 -42 39 -34 4 4 5 2 3 -5 -4
-16 202 -218 439 -428 23 -20 43 -35 45 -33 2 1 17 -11 33 -27 37 -38 195
-167 195 -160 0 2 12 -8 27 -23 16 -16 57 -50 93 -77 36 -27 70 -53 75 -58 6
-4 62 -46 125 -92 63 -46 120 -88 125 -93 6 -4 53 -37 105 -72 52 -36 97 -68
98 -72 2 -5 10 -8 17 -8 7 0 15 -4 17 -8 6 -14 132 -87 156 -90 13 -2 35 5 50
15 15 10 34 22 44 28 84 51 138 89 138 96 0 5 6 9 14 9 7 0 24 10 37 22 14 13
27 23 29 24 6 0 59 34 75 47 6 4 48 35 95 69 47 34 87 64 90 68 3 3 34 26 70
52 36 25 76 55 90 67 14 11 30 24 35 28 43 33 228 184 260 212 23 20 69 61
104 91 151 131 206 183 203 193 -1 5 1 6 6 3 7 -4 267 254 347 345 149 171
276 332 330 418 6 9 12 18 15 21 10 10 50 69 50 74 0 3 16 30 35 60 19 30 36
60 37 67 2 8 6 16 9 19 12 10 79 150 72 150 -5 0 -3 4 3 8 9 6 51 104 58 137
2 6 12 42 24 82 13 39 22 75 21 80 -1 4 0 10 1 13 2 6 5 25 17 90 14 79 8 253
-13 400 -3 25 -8 54 -9 65 -6 41 -45 183 -61 221 -21 49 -35 88 -36 94 -1 14
-77 144 -122 209 -82 120 -275 301 -376 353 -14 7 -27 16 -30 19 -11 13 -191
100 -285 137 -83 33 -240 83 -305 97 -170 38 -289 60 -380 70 -30 3 -66 8 -80
10 -45 7 -116 15 -201 21 -206 15 -592 28 -600 20z m276 -186 c158 -34 276
-133 363 -306 37 -74 93 -230 85 -238 -4 -3 -2 -6 3 -6 5 0 10 -8 10 -17 1
-10 4 -31 8 -48 14 -60 45 -241 50 -290 21 -192 28 -626 13 -765 -4 -36 -10
-87 -12 -115 -3 -27 -7 -61 -10 -75 -3 -14 -7 -43 -11 -65 -3 -22 -7 -47 -9
-55 -2 -8 -7 -33 -10 -55 -3 -23 -8 -52 -11 -65 -3 -14 -7 -38 -10 -55 -3 -16
-21 -93 -40 -170 -19 -77 -37 -147 -39 -155 -15 -67 -66 -234 -113 -375 -31
-93 -56 -176 -55 -182 0 -7 -3 -13 -7 -13 -4 0 -11 -12 -14 -26 -5 -20 -96
-255 -131 -339 -5 -11 -9 -22 -10 -25 0 -3 -12 -30 -25 -60 -14 -30 -24 -58
-22 -62 1 -5 -3 -8 -8 -8 -5 0 -9 -3 -9 -7 1 -5 -4 -24 -12 -43 -7 -19 -12
-38 -11 -42 1 -5 -2 -8 -7 -8 -8 0 -31 -51 -30 -67 1 -3 -3 -9 -8 -12 -5 -3
-17 -26 -28 -49 -17 -40 -20 -42 -32 -25 -7 10 -17 24 -23 31 -6 6 -9 12 -6
12 3 0 -9 30 -25 68 -17 37 -36 81 -44 97 -7 17 -25 56 -39 88 -14 32 -26 60
-26 62 0 3 -9 27 -21 53 -35 78 -37 83 -80 192 -36 93 -196 561 -204 600 -2 8
-18 69 -35 135 -18 66 -35 134 -37 150 -3 17 -9 32 -14 33 -5 2 -7 7 -5 11 2
3 -6 56 -19 116 -13 61 -26 126 -29 145 -3 19 -8 46 -10 60 -13 72 -29 206
-42 345 -5 57 -5 480 0 540 3 28 7 82 10 121 4 38 8 83 10 100 2 16 7 54 11
84 8 68 62 293 81 339 8 18 11 37 8 42 -3 5 -1 9 5 9 6 0 14 12 17 28 4 15 11
29 15 32 4 3 9 12 11 20 12 55 152 218 214 250 16 8 31 18 34 21 9 11 112 40
165 46 28 3 51 7 53 8 6 6 120 -4 167 -15z m-671 -67 c-15 -21 -36 -49 -46
-62 -10 -13 -15 -28 -11 -34 3 -5 2 -7 -4 -4 -11 7 -78 -131 -117 -240 -23
-67 -48 -162 -61 -231 -2 -15 -9 -52 -15 -82 -10 -50 -14 -78 -26 -180 -19
-168 -26 -639 -11 -795 12 -117 17 -167 23 -195 3 -14 7 -41 9 -60 3 -33 9
-65 20 -120 3 -14 7 -38 10 -55 6 -36 13 -71 21 -105 3 -14 7 -32 8 -40 11
-60 20 -91 27 -96 5 -3 7 -9 4 -14 -6 -9 78 -323 100 -378 8 -17 12 -32 10
-32 -3 0 4 -24 14 -53 10 -28 29 -85 42 -124 13 -40 27 -73 32 -73 4 0 6 -4 3
-8 -3 -5 8 -44 25 -88 17 -43 34 -90 38 -104 8 -24 38 -100 66 -165 45 -105
82 -205 76 -205 -8 0 -68 63 -186 195 -38 44 -81 91 -95 105 -14 15 -29 33
-35 42 -5 9 -39 52 -75 96 -36 44 -89 110 -118 148 -28 38 -57 74 -62 81 -6 7
-53 75 -104 152 -52 76 -96 137 -99 135 -2 -2 -4 2 -4 9 -1 6 -31 62 -67 122
-37 61 -98 174 -136 252 -65 132 -84 177 -112 261 -6 17 -15 32 -20 32 -5 0
-6 4 -3 10 3 5 1 19 -5 30 -6 12 -13 29 -15 38 -2 9 -13 51 -24 92 -44 162
-55 248 -55 435 0 180 10 287 41 425 9 41 16 77 16 80 0 3 13 41 28 84 16 43
26 82 24 86 -3 5 2 11 11 14 9 4 14 13 10 21 -3 8 -2 15 2 15 4 0 13 14 20 30
25 55 108 174 167 238 57 61 206 182 226 182 5 0 26 10 47 23 39 24 164 80
207 93 59 17 126 35 150 40 16 3 31 7 34 10 2 2 9 4 14 4 5 0 -3 -17 -19 -37z
m1112 21 c124 -19 393 -137 488 -214 69 -56 190 -170 181 -170 -3 0 13 -24 35
-52 45 -59 118 -203 150 -292 23 -65 55 -196 65 -266 3 -25 8 -56 10 -70 21
-126 21 -361 -1 -520 -27 -200 -155 -541 -304 -805 -29 -52 -122 -207 -132
-220 -4 -5 -38 -55 -74 -110 -37 -55 -85 -124 -106 -152 -21 -29 -39 -56 -41
-60 -1 -4 -14 -21 -29 -37 -15 -16 -24 -34 -21 -40 3 -6 3 -8 -2 -4 -4 4 -19
-7 -32 -25 -59 -81 -270 -331 -360 -428 -29 -31 -50 -59 -45 -64 4 -5 2 -5 -5
-1 -7 4 -16 -2 -22 -13 -6 -10 -17 -21 -25 -24 -9 -4 3 37 34 111 49 121 62
155 60 160 0 1 6 15 14 31 32 60 206 567 221 640 2 9 8 29 14 45 7 16 9 31 6
34 -2 3 -1 10 5 17 7 9 71 254 86 329 2 12 10 55 19 96 8 41 17 91 20 110 3
19 7 46 10 60 3 14 7 39 10 55 4 27 7 50 20 165 26 230 21 700 -9 890 -3 19
-8 52 -11 73 -16 116 -14 106 -40 217 -8 36 -18 75 -20 88 -19 83 -136 349
-164 372 -11 9 -61 79 -61 85 0 3 4 4 9 1 5 -3 26 -8 47 -12z m-1849 -176
c-224 -220 -344 -482 -392 -863 -23 -177 -23 -450 0 -565 28 -142 38 -187 46
-196 5 -6 7 -13 4 -16 -7 -7 64 -215 114 -333 60 -140 176 -360 261 -495 40
-63 82 -130 92 -147 11 -18 24 -33 29 -33 5 0 9 -5 9 -11 0 -14 102 -159 112
-159 4 0 7 -4 6 -8 -3 -9 42 -71 79 -109 13 -13 22 -25 20 -27 -1 -2 10 -19
25 -38 146 -179 158 -196 121 -167 -32 24 -118 94 -129 104 -6 5 -30 26 -54
45 -24 19 -54 45 -67 58 -13 13 -23 20 -23 17 0 -4 -12 7 -26 24 -14 17 -30
29 -35 25 -5 -3 -9 1 -10 8 0 7 -22 31 -49 53 -49 41 -360 351 -440 440 -25
28 -76 88 -114 135 -37 47 -76 94 -85 105 -9 11 -29 39 -45 63 -16 23 -33 42
-37 42 -5 0 -8 3 -7 8 1 4 -18 39 -43 77 -137 209 -245 456 -264 604 -4 30 -9
63 -11 75 -6 26 -5 242 0 276 2 14 7 48 11 75 16 124 55 253 118 385 11 25 20
48 19 53 -1 4 2 7 8 7 5 0 17 15 26 33 9 17 30 48 45 68 16 20 25 39 21 43 -4
4 -2 6 3 5 13 -4 144 129 136 138 -3 3 -1 3 5 0 6 -4 19 2 29 13 30 33 171
120 281 172 98 47 295 120 303 113 2 -2 -40 -46 -92 -97z m2538 75 c91 -27
277 -110 328 -145 15 -11 27 -17 27 -13 0 3 6 1 13 -5 6 -5 48 -36 92 -68 97
-71 165 -138 238 -234 73 -97 159 -271 182 -368 34 -143 47 -240 50 -388 3
-130 -16 -249 -61 -382 -37 -108 -170 -380 -187 -380 -5 0 -7 -6 -4 -14 3 -8
2 -16 -3 -18 -5 -2 -43 -52 -86 -113 -43 -60 -83 -115 -88 -121 -6 -6 -22 -26
-36 -44 -14 -18 -30 -39 -37 -45 -7 -7 -9 -15 -6 -19 4 -3 -1 -6 -10 -6 -9 0
-17 -4 -17 -10 0 -5 -8 -18 -17 -28 -10 -10 -58 -63 -108 -117 -160 -174 -486
-486 -541 -518 -8 -5 -11 -14 -8 -20 4 -7 4 -9 -1 -5 -6 6 -89 -54 -115 -82
-3 -3 -31 -27 -62 -52 -31 -25 -55 -48 -52 -52 2 -3 1 -4 -3 -1 -3 3 -11 0
-18 -5 -8 -7 -12 -5 -12 5 0 8 4 12 9 9 4 -3 8 -2 8 3 0 4 14 22 30 40 17 18
30 36 30 42 0 5 4 11 9 13 15 5 140 166 133 172 -3 3 -1 6 5 6 6 0 30 28 54
62 24 35 47 65 51 66 4 2 8 8 8 13 0 6 5 15 10 22 39 45 89 121 84 128 -3 5
-1 9 5 9 5 0 26 28 47 63 21 34 40 64 43 67 3 3 12 16 20 30 86 149 119 210
113 210 -4 0 -2 4 4 8 37 25 234 507 234 572 0 9 3 20 8 24 4 4 7 11 7 14 1 7
10 51 20 102 23 106 30 183 30 335 -1 230 -25 435 -71 580 -8 28 -17 57 -19
66 -6 30 -77 194 -98 229 -12 19 -22 37 -22 40 0 3 -23 39 -52 80 -56 83 -154
190 -172 190 -7 0 -10 4 -7 8 2 4 -11 18 -30 31 -36 25 -47 48 -16 36 9 -4 40
-14 67 -22z"/>
<path d="M2249 833 c-49 -21 -52 -37 -53 -323 -1 -278 5 -331 43 -394 32 -51
128 -115 152 -101 5 4 9 1 9 -4 0 -8 96 -11 300 -11 187 0 300 4 300 10 0 5 7
7 15 4 22 -9 117 52 143 92 12 18 21 35 20 36 -1 2 5 14 13 28 11 20 14 86 15
315 1 169 -3 299 -9 311 -20 47 -32 48 -489 48 -307 1 -439 -2 -459 -11z m792
-171 c0 -9 1 -107 1 -218 0 -224 -7 -257 -59 -268 -49 -9 -556 -4 -579 6 -12
6 -26 20 -31 32 -7 16 -11 451 -4 463 0 2 152 3 336 2 309 0 335 -1 336 -17z"/>
</g>
</svg>
